# xmcd CD database file
#
# Track frame offsets:
#	150
#	13317
#	24315
#	42165
#	54170
#	66754
#	78819
#	91060
#	102386
#	115740
#	130240
#	143516
#	155362
#	170621
#
# Disc length: 2457 seconds
#
# Revision: 1
# Processed by: cddbd v1.5.2PL0 Copyright (c) Steve Scherf et al.
# Submitted via: CDex 1.70beta2
#
DISCID=a509970e
DTITLE=John Lee Hooker - Kings of Blues CD 1
DYEAR=1900
DGENRE=Blues
TTITLE0=I'm In The Mood (Hooker,Taub)
TTITLE1=Big Fine Woman (Hooker)
TTITLE2=House Rent Boogie (Hooker)
TTITLE3=Crawling King Snake (Hooker, Josea, Taub)
TTITLE4=Leave My Wife Alone (Hooker)
TTITLE5=Mad Man Blues (Hooker)
TTITLE6=High Priced Woman (Hooker)
TTITLE7=Boom Boom (Hooker)
TTITLE8=Dirty Ground Hog (Hooker)
TTITLE9=Do The Boogie (Hooker)
TTITLE10=Union Station Blues (Hooker)
TTITLE11=Little Boy Blue (Besman, Hooker)
TTITLE12=Anybody Seen My Baby (Besman, Hooker)
TTITLE13=Louise Louise (Hooker)
EXTD=
EXTT0=
EXTT1=
EXTT2=
EXTT3=
EXTT4=
EXTT5=
EXTT6=
EXTT7=
EXTT8=
EXTT9=
EXTT10=
EXTT11=
EXTT12=
EXTT13=
PLAYORDER=
